  0
SECTION
  2
HEADER
  9
$ACADVER
  1
AC1009
  9
$FILLMODE
 70
 0
  9
$SPLFRAME
 70
 1
  9
$EXTMIN
 10
0
 20
0
 30
0.0
  9
$EXTMAX
 10
1058.33
 20
1058.33
 30
0.0
  0
ENDSEC
  0
SECTION
  2
TABLES
  0
TABLE
  2
LAYER
 70
1
  0
LAYER
  2
0
 70
     0
 62
     7
  6
CONTINUOUS
  0
ENDTAB
  0
ENDSEC
  0
SECTION
  2
ENTITIES
  0
LINE
  8
0
 62
     0
 10
0.0950846
 20
138.546
 30
0.0
 11
167.546
 21
138.546
 31
0.0
  0
LINE
  8
0
 62
     0
 10
167.546
 20
138.546
 30
0.0
 11
167.546
 21
0.137804
 31
0.0
  0
LINE
  8
0
 62
     0
 10
167.546
 20
0.137804
 30
0.0
 11
0.0950846
 21
0.137804
 31
0.0
  0
LINE
  8
0
 62
     0
 10
0.0950846
 20
0.137804
 30
0.0
 11
0.0950846
 21
138.546
 31
0.0
  0
LINE
  8
0
 62
     0
 10
143.695
 20
10.5888
 30
0.0
 11
155.819
 21
3.58842
 31
0.0
  0
LINE
  8
0
 62
     0
 10
155.819
 20
3.58842
 30
0.0
 11
162.819
 21
15.7124
 31
0.0
  0
LINE
  8
0
 62
     0
 10
162.819
 20
15.7124
 30
0.0
 11
150.695
 21
22.7128
 31
0.0
  0
LINE
  8
0
 62
     0
 10
150.695
 20
22.7128
 30
0.0
 11
143.695
 21
10.5888
 31
0.0
  0
LINE
  8
0
 62
     0
 10
127.197
 20
20.1138
 30
0.0
 11
139.321
 21
13.1134
 31
0.0
  0
LINE
  8
0
 62
     0
 10
139.321
 20
13.1134
 30
0.0
 11
146.322
 21
25.2374
 31
0.0
  0
LINE
  8
0
 62
     0
 10
146.322
 20
25.2374
 30
0.0
 11
134.197
 21
32.2378
 31
0.0
  0
LINE
  8
0
 62
     0
 10
134.197
 20
32.2378
 30
0.0
 11
127.197
 21
20.1138
 31
0.0
  0
LINE
  8
0
 62
     0
 10
69.2947
 20
36.0094
 30
0.0
 11
83.294
 21
36.0094
 31
0.0
  0
LINE
  8
0
 62
     0
 10
83.294
 20
36.0094
 30
0.0
 11
83.294
 21
22.01
 31
0.0
  0
LINE
  8
0
 62
     0
 10
83.294
 20
22.01
 30
0.0
 11
69.2947
 21
22.01
 31
0.0
  0
LINE
  8
0
 62
     0
 10
69.2947
 20
22.01
 30
0.0
 11
69.2947
 21
36.0094
 31
0.0
  0
LINE
  8
0
 62
     0
 10
88.3447
 20
36.0094
 30
0.0
 11
102.344
 21
36.0094
 31
0.0
  0
LINE
  8
0
 62
     0
 10
102.344
 20
36.0094
 30
0.0
 11
102.344
 21
22.01
 31
0.0
  0
LINE
  8
0
 62
     0
 10
102.344
 20
22.01
 30
0.0
 11
88.3447
 21
22.01
 31
0.0
  0
LINE
  8
0
 62
     0
 10
88.3447
 20
22.01
 30
0.0
 11
88.3447
 21
36.0094
 31
0.0
  0
LINE
  8
0
 62
     0
 10
107.395
 20
36.0094
 30
0.0
 11
121.394
 21
36.0094
 31
0.0
  0
LINE
  8
0
 62
     0
 10
121.394
 20
36.0094
 30
0.0
 11
121.394
 21
22.01
 31
0.0
  0
LINE
  8
0
 62
     0
 10
121.394
 20
22.01
 30
0.0
 11
107.395
 21
22.01
 31
0.0
  0
LINE
  8
0
 62
     0
 10
107.395
 20
22.01
 30
0.0
 11
107.395
 21
36.0094
 31
0.0
  0
LINE
  8
0
 62
     0
 10
144.971
 20
31.8478
 30
0.0
 11
157.095
 21
24.8488
 31
0.0
  0
LINE
  8
0
 62
     0
 10
157.095
 20
24.8488
 30
0.0
 11
164.095
 21
36.9729
 31
0.0
  0
LINE
  8
0
 62
     0
 10
164.095
 20
36.9729
 30
0.0
 11
151.971
 21
43.973
 31
0.0
  0
LINE
  8
0
 62
     0
 10
151.971
 20
43.973
 30
0.0
 11
144.971
 21
31.8478
 31
0.0
  0
LINE
  8
0
 62
     0
 10
12.1447
 20
52.6796
 30
0.0
 11
26.1441
 21
52.6796
 31
0.0
  0
LINE
  8
0
 62
     0
 10
26.1441
 20
52.6796
 30
0.0
 11
26.1441
 21
38.6789
 31
0.0
  0
LINE
  8
0
 62
     0
 10
26.1441
 20
38.6789
 30
0.0
 11
12.1447
 21
38.6789
 31
0.0
  0
LINE
  8
0
 62
     0
 10
12.1447
 20
38.6789
 30
0.0
 11
12.1447
 21
52.6796
 31
0.0
  0
LINE
  8
0
 62
     0
 10
31.1947
 20
52.6796
 30
0.0
 11
45.194
 21
52.6796
 31
0.0
  0
LINE
  8
0
 62
     0
 10
45.194
 20
52.6796
 30
0.0
 11
45.194
 21
38.6789
 31
0.0
  0
LINE
  8
0
 62
     0
 10
45.194
 20
38.6789
 30
0.0
 11
31.1947
 21
38.6789
 31
0.0
  0
LINE
  8
0
 62
     0
 10
31.1947
 20
38.6789
 30
0.0
 11
31.1947
 21
52.6796
 31
0.0
  0
LINE
  8
0
 62
     0
 10
107.395
 20
55.0594
 30
0.0
 11
121.394
 21
55.0594
 31
0.0
  0
LINE
  8
0
 62
     0
 10
121.394
 20
55.0594
 30
0.0
 11
121.394
 21
41.0602
 31
0.0
  0
LINE
  8
0
 62
     0
 10
121.394
 20
41.0602
 30
0.0
 11
107.395
 21
41.0602
 31
0.0
  0
LINE
  8
0
 62
     0
 10
107.395
 20
41.0602
 30
0.0
 11
107.395
 21
55.0594
 31
0.0
  0
LINE
  8
0
 62
     0
 10
50.2447
 20
57.4407
 30
0.0
 11
64.244
 21
57.4407
 31
0.0
  0
LINE
  8
0
 62
     0
 10
64.244
 20
57.4407
 30
0.0
 11
64.244
 21
43.4414
 31
0.0
  0
LINE
  8
0
 62
     0
 10
64.244
 20
43.4414
 30
0.0
 11
50.2447
 21
43.4414
 31
0.0
  0
LINE
  8
0
 62
     0
 10
50.2447
 20
43.4414
 30
0.0
 11
50.2447
 21
57.4407
 31
0.0
  0
LINE
  8
0
 62
     0
 10
88.3447
 20
57.4407
 30
0.0
 11
102.344
 21
57.4407
 31
0.0
  0
LINE
  8
0
 62
     0
 10
102.344
 20
57.4407
 30
0.0
 11
102.344
 21
43.4414
 31
0.0
  0
LINE
  8
0
 62
     0
 10
102.344
 20
43.4414
 30
0.0
 11
88.3447
 21
43.4414
 31
0.0
  0
LINE
  8
0
 62
     0
 10
88.3447
 20
43.4414
 30
0.0
 11
88.3447
 21
57.4407
 31
0.0
  0
LINE
  8
0
 62
     0
 10
69.2947
 20
59.8219
 30
0.0
 11
83.294
 21
59.8219
 31
0.0
  0
LINE
  8
0
 62
     0
 10
83.294
 20
59.8219
 30
0.0
 11
83.294
 21
45.8227
 31
0.0
  0
LINE
  8
0
 62
     0
 10
83.294
 20
45.8227
 30
0.0
 11
69.2947
 21
45.8227
 31
0.0
  0
LINE
  8
0
 62
     0
 10
69.2947
 20
45.8227
 30
0.0
 11
69.2947
 21
59.8219
 31
0.0
  0
LINE
  8
0
 62
     0
 10
12.1447
 20
71.7296
 30
0.0
 11
26.1441
 21
71.7296
 31
0.0
  0
LINE
  8
0
 62
     0
 10
26.1441
 20
71.7296
 30
0.0
 11
26.1441
 21
57.7289
 31
0.0
  0
LINE
  8
0
 62
     0
 10
26.1441
 20
57.7289
 30
0.0
 11
12.1447
 21
57.7289
 31
0.0
  0
LINE
  8
0
 62
     0
 10
12.1447
 20
57.7289
 30
0.0
 11
12.1447
 21
71.7296
 31
0.0
  0
LINE
  8
0
 62
     0
 10
31.1947
 20
71.7296
 30
0.0
 11
45.194
 21
71.7296
 31
0.0
  0
LINE
  8
0
 62
     0
 10
45.194
 20
71.7296
 30
0.0
 11
45.194
 21
57.7289
 31
0.0
  0
LINE
  8
0
 62
     0
 10
45.194
 20
57.7289
 30
0.0
 11
31.1947
 21
57.7289
 31
0.0
  0
LINE
  8
0
 62
     0
 10
31.1947
 20
57.7289
 30
0.0
 11
31.1947
 21
71.7296
 31
0.0
  0
LINE
  8
0
 62
     0
 10
107.395
 20
74.1094
 30
0.0
 11
121.394
 21
74.1094
 31
0.0
  0
LINE
  8
0
 62
     0
 10
121.394
 20
74.1094
 30
0.0
 11
121.394
 21
60.1102
 31
0.0
  0
LINE
  8
0
 62
     0
 10
121.394
 20
60.1102
 30
0.0
 11
107.395
 21
60.1102
 31
0.0
  0
LINE
  8
0
 62
     0
 10
107.395
 20
60.1102
 30
0.0
 11
107.395
 21
74.1094
 31
0.0
  0
LINE
  8
0
 62
     0
 10
50.2447
 20
76.4907
 30
0.0
 11
64.244
 21
76.4907
 31
0.0
  0
LINE
  8
0
 62
     0
 10
64.244
 20
76.4907
 30
0.0
 11
64.244
 21
62.4914
 31
0.0
  0
LINE
  8
0
 62
     0
 10
64.244
 20
62.4914
 30
0.0
 11
50.2447
 21
62.4914
 31
0.0
  0
LINE
  8
0
 62
     0
 10
50.2447
 20
62.4914
 30
0.0
 11
50.2447
 21
76.4907
 31
0.0
  0
LINE
  8
0
 62
     0
 10
88.3447
 20
76.4907
 30
0.0
 11
102.344
 21
76.4907
 31
0.0
  0
LINE
  8
0
 62
     0
 10
102.344
 20
76.4907
 30
0.0
 11
102.344
 21
62.4914
 31
0.0
  0
LINE
  8
0
 62
     0
 10
102.344
 20
62.4914
 30
0.0
 11
88.3447
 21
62.4914
 31
0.0
  0
LINE
  8
0
 62
     0
 10
88.3447
 20
62.4914
 30
0.0
 11
88.3447
 21
76.4907
 31
0.0
  0
LINE
  8
0
 62
     0
 10
69.2947
 20
78.8719
 30
0.0
 11
83.294
 21
78.8719
 31
0.0
  0
LINE
  8
0
 62
     0
 10
83.294
 20
78.8719
 30
0.0
 11
83.294
 21
64.8727
 31
0.0
  0
LINE
  8
0
 62
     0
 10
83.294
 20
64.8727
 30
0.0
 11
69.2947
 21
64.8727
 31
0.0
  0
LINE
  8
0
 62
     0
 10
69.2947
 20
64.8727
 30
0.0
 11
69.2947
 21
78.8719
 31
0.0
  0
LINE
  8
0
 62
     0
 10
12.1447
 20
90.7796
 30
0.0
 11
26.1441
 21
90.7796
 31
0.0
  0
LINE
  8
0
 62
     0
 10
26.1441
 20
90.7796
 30
0.0
 11
26.1441
 21
76.7789
 31
0.0
  0
LINE
  8
0
 62
     0
 10
26.1441
 20
76.7789
 30
0.0
 11
12.1447
 21
76.7789
 31
0.0
  0
LINE
  8
0
 62
     0
 10
12.1447
 20
76.7789
 30
0.0
 11
12.1447
 21
90.7796
 31
0.0
  0
LINE
  8
0
 62
     0
 10
31.1947
 20
90.7796
 30
0.0
 11
45.194
 21
90.7796
 31
0.0
  0
LINE
  8
0
 62
     0
 10
45.194
 20
90.7796
 30
0.0
 11
45.194
 21
76.7789
 31
0.0
  0
LINE
  8
0
 62
     0
 10
45.194
 20
76.7789
 30
0.0
 11
31.1947
 21
76.7789
 31
0.0
  0
LINE
  8
0
 62
     0
 10
31.1947
 20
76.7789
 30
0.0
 11
31.1947
 21
90.7796
 31
0.0
  0
LINE
  8
0
 62
     0
 10
107.395
 20
93.1594
 30
0.0
 11
121.394
 21
93.1594
 31
0.0
  0
LINE
  8
0
 62
     0
 10
121.394
 20
93.1594
 30
0.0
 11
121.394
 21
79.1602
 31
0.0
  0
LINE
  8
0
 62
     0
 10
121.394
 20
79.1602
 30
0.0
 11
107.395
 21
79.1602
 31
0.0
  0
LINE
  8
0
 62
     0
 10
107.395
 20
79.1602
 30
0.0
 11
107.395
 21
93.1594
 31
0.0
  0
LINE
  8
0
 62
     0
 10
50.2447
 20
95.5407
 30
0.0
 11
64.244
 21
95.5407
 31
0.0
  0
LINE
  8
0
 62
     0
 10
64.244
 20
95.5407
 30
0.0
 11
64.244
 21
81.5414
 31
0.0
  0
LINE
  8
0
 62
     0
 10
64.244
 20
81.5414
 30
0.0
 11
50.2447
 21
81.5414
 31
0.0
  0
LINE
  8
0
 62
     0
 10
50.2447
 20
81.5414
 30
0.0
 11
50.2447
 21
95.5407
 31
0.0
  0
LINE
  8
0
 62
     0
 10
88.3447
 20
95.5407
 30
0.0
 11
102.344
 21
95.5407
 31
0.0
  0
LINE
  8
0
 62
     0
 10
102.344
 20
95.5407
 30
0.0
 11
102.344
 21
81.5414
 31
0.0
  0
LINE
  8
0
 62
     0
 10
102.344
 20
81.5414
 30
0.0
 11
88.3447
 21
81.5414
 31
0.0
  0
LINE
  8
0
 62
     0
 10
88.3447
 20
81.5414
 30
0.0
 11
88.3447
 21
95.5407
 31
0.0
  0
LINE
  8
0
 62
     0
 10
69.2947
 20
97.9219
 30
0.0
 11
83.294
 21
97.9219
 31
0.0
  0
LINE
  8
0
 62
     0
 10
83.294
 20
97.9219
 30
0.0
 11
83.294
 21
83.9227
 31
0.0
  0
LINE
  8
0
 62
     0
 10
83.294
 20
83.9227
 30
0.0
 11
69.2947
 21
83.9227
 31
0.0
  0
LINE
  8
0
 62
     0
 10
69.2947
 20
83.9227
 30
0.0
 11
69.2947
 21
97.9219
 31
0.0
  0
LINE
  8
0
 62
     0
 10
12.1447
 20
109.83
 30
0.0
 11
26.1441
 21
109.83
 31
0.0
  0
LINE
  8
0
 62
     0
 10
26.1441
 20
109.83
 30
0.0
 11
26.1441
 21
95.8289
 31
0.0
  0
LINE
  8
0
 62
     0
 10
26.1441
 20
95.8289
 30
0.0
 11
12.1447
 21
95.8289
 31
0.0
  0
LINE
  8
0
 62
     0
 10
12.1447
 20
95.8289
 30
0.0
 11
12.1447
 21
109.83
 31
0.0
  0
LINE
  8
0
 62
     0
 10
31.1947
 20
109.83
 30
0.0
 11
45.194
 21
109.83
 31
0.0
  0
LINE
  8
0
 62
     0
 10
45.194
 20
109.83
 30
0.0
 11
45.194
 21
95.8289
 31
0.0
  0
LINE
  8
0
 62
     0
 10
45.194
 20
95.8289
 30
0.0
 11
31.1947
 21
95.8289
 31
0.0
  0
LINE
  8
0
 62
     0
 10
31.1947
 20
95.8289
 30
0.0
 11
31.1947
 21
109.83
 31
0.0
  0
LINE
  8
0
 62
     0
 10
107.395
 20
112.209
 30
0.0
 11
121.394
 21
112.209
 31
0.0
  0
LINE
  8
0
 62
     0
 10
121.394
 20
112.209
 30
0.0
 11
121.394
 21
98.2102
 31
0.0
  0
LINE
  8
0
 62
     0
 10
121.394
 20
98.2102
 30
0.0
 11
107.395
 21
98.2102
 31
0.0
  0
LINE
  8
0
 62
     0
 10
107.395
 20
98.2102
 30
0.0
 11
107.395
 21
112.209
 31
0.0
  0
LINE
  8
0
 62
     0
 10
50.2447
 20
114.591
 30
0.0
 11
64.244
 21
114.591
 31
0.0
  0
LINE
  8
0
 62
     0
 10
64.244
 20
114.591
 30
0.0
 11
64.244
 21
100.591
 31
0.0
  0
LINE
  8
0
 62
     0
 10
64.244
 20
100.591
 30
0.0
 11
50.2447
 21
100.591
 31
0.0
  0
LINE
  8
0
 62
     0
 10
50.2447
 20
100.591
 30
0.0
 11
50.2447
 21
114.591
 31
0.0
  0
LINE
  8
0
 62
     0
 10
88.3447
 20
114.591
 30
0.0
 11
102.344
 21
114.591
 31
0.0
  0
LINE
  8
0
 62
     0
 10
102.344
 20
114.591
 30
0.0
 11
102.344
 21
100.591
 31
0.0
  0
LINE
  8
0
 62
     0
 10
102.344
 20
100.591
 30
0.0
 11
88.3447
 21
100.591
 31
0.0
  0
LINE
  8
0
 62
     0
 10
88.3447
 20
100.591
 30
0.0
 11
88.3447
 21
114.591
 31
0.0
  0
LINE
  8
0
 62
     0
 10
69.2947
 20
116.972
 30
0.0
 11
83.294
 21
116.972
 31
0.0
  0
LINE
  8
0
 62
     0
 10
83.294
 20
116.972
 30
0.0
 11
83.294
 21
102.973
 31
0.0
  0
LINE
  8
0
 62
     0
 10
83.294
 20
102.973
 30
0.0
 11
69.2947
 21
102.973
 31
0.0
  0
LINE
  8
0
 62
     0
 10
69.2947
 20
102.973
 30
0.0
 11
69.2947
 21
116.972
 31
0.0
  0
LINE
  8
0
 62
     0
 10
12.1447
 20
128.88
 30
0.0
 11
26.1441
 21
128.88
 31
0.0
  0
LINE
  8
0
 62
     0
 10
26.1441
 20
128.88
 30
0.0
 11
26.1441
 21
114.879
 31
0.0
  0
LINE
  8
0
 62
     0
 10
26.1441
 20
114.879
 30
0.0
 11
12.1447
 21
114.879
 31
0.0
  0
LINE
  8
0
 62
     0
 10
12.1447
 20
114.879
 30
0.0
 11
12.1447
 21
128.88
 31
0.0
  0
LINE
  8
0
 62
     0
 10
31.1947
 20
128.88
 30
0.0
 11
45.194
 21
128.88
 31
0.0
  0
LINE
  8
0
 62
     0
 10
45.194
 20
128.88
 30
0.0
 11
45.194
 21
114.879
 31
0.0
  0
LINE
  8
0
 62
     0
 10
45.194
 20
114.879
 30
0.0
 11
31.1947
 21
114.879
 31
0.0
  0
LINE
  8
0
 62
     0
 10
31.1947
 20
114.879
 30
0.0
 11
31.1947
 21
128.88
 31
0.0
  0
LINE
  8
0
 62
     0
 10
107.395
 20
131.259
 30
0.0
 11
121.394
 21
131.259
 31
0.0
  0
LINE
  8
0
 62
     0
 10
121.394
 20
131.259
 30
0.0
 11
121.394
 21
117.26
 31
0.0
  0
LINE
  8
0
 62
     0
 10
121.394
 20
117.26
 30
0.0
 11
107.395
 21
117.26
 31
0.0
  0
LINE
  8
0
 62
     0
 10
107.395
 20
117.26
 30
0.0
 11
107.395
 21
131.259
 31
0.0
  0
LINE
  8
0
 62
     0
 10
50.2447
 20
133.641
 30
0.0
 11
64.244
 21
133.641
 31
0.0
  0
LINE
  8
0
 62
     0
 10
64.244
 20
133.641
 30
0.0
 11
64.244
 21
119.641
 31
0.0
  0
LINE
  8
0
 62
     0
 10
64.244
 20
119.641
 30
0.0
 11
50.2447
 21
119.641
 31
0.0
  0
LINE
  8
0
 62
     0
 10
50.2447
 20
119.641
 30
0.0
 11
50.2447
 21
133.641
 31
0.0
  0
LINE
  8
0
 62
     0
 10
88.3447
 20
133.641
 30
0.0
 11
102.344
 21
133.641
 31
0.0
  0
LINE
  8
0
 62
     0
 10
102.344
 20
133.641
 30
0.0
 11
102.344
 21
119.641
 31
0.0
  0
LINE
  8
0
 62
     0
 10
102.344
 20
119.641
 30
0.0
 11
88.3447
 21
119.641
 31
0.0
  0
LINE
  8
0
 62
     0
 10
88.3447
 20
119.641
 30
0.0
 11
88.3447
 21
133.641
 31
0.0
  0
LINE
  8
0
 62
     0
 10
69.2947
 20
136.022
 30
0.0
 11
83.294
 21
136.022
 31
0.0
  0
LINE
  8
0
 62
     0
 10
83.294
 20
136.022
 30
0.0
 11
83.294
 21
122.023
 31
0.0
  0
LINE
  8
0
 62
     0
 10
83.294
 20
122.023
 30
0.0
 11
69.2947
 21
122.023
 31
0.0
  0
LINE
  8
0
 62
     0
 10
69.2947
 20
122.023
 30
0.0
 11
69.2947
 21
136.022
 31
0.0
  0
ENDSEC
  0
EOF
