  0
SECTION
  2
HEADER
  9
$ACADVER
  1
AC1009
  9
$FILLMODE
 70
 0
  9
$SPLFRAME
 70
 1
  9
$EXTMIN
 10
0
 20
0
 30
0.0
  9
$EXTMAX
 10
1058.33
 20
1058.33
 30
0.0
  0
ENDSEC
  0
SECTION
  2
TABLES
  0
TABLE
  2
LAYER
 70
1
  0
LAYER
  2
0
 70
     0
 62
     7
  6
CONTINUOUS
  0
ENDTAB
  0
ENDSEC
  0
SECTION
  2
ENTITIES
  0
LINE
  8
0
 62
     0
 10
0.0950846
 20
119.496
 30
0.0
 11
167.632
 21
119.496
 31
0.0
  0
LINE
  8
0
 62
     0
 10
167.632
 20
119.496
 30
0.0
 11
167.632
 21
0.286632
 31
0.0
  0
LINE
  8
0
 62
     0
 10
167.632
 20
0.286632
 30
0.0
 11
0.0950846
 21
0.286632
 31
0.0
  0
LINE
  8
0
 62
     0
 10
0.0950846
 20
0.286632
 30
0.0
 11
0.0950846
 21
119.496
 31
0.0
  0
LINE
  8
0
 62
     0
 10
143.78
 20
10.7363
 30
0.0
 11
155.904
 21
3.73585
 31
0.0
  0
LINE
  8
0
 62
     0
 10
155.904
 20
3.73585
 30
0.0
 11
162.905
 21
15.8612
 31
0.0
  0
LINE
  8
0
 62
     0
 10
162.905
 20
15.8612
 30
0.0
 11
150.781
 21
22.8617
 31
0.0
  0
LINE
  8
0
 62
     0
 10
150.781
 20
22.8617
 30
0.0
 11
143.78
 21
10.7363
 31
0.0
  0
LINE
  8
0
 62
     0
 10
127.283
 20
20.2613
 30
0.0
 11
139.408
 21
13.2608
 31
0.0
  0
LINE
  8
0
 62
     0
 10
139.408
 20
13.2608
 30
0.0
 11
146.407
 21
25.3862
 31
0.0
  0
LINE
  8
0
 62
     0
 10
146.407
 20
25.3862
 30
0.0
 11
134.283
 21
32.3867
 31
0.0
  0
LINE
  8
0
 62
     0
 10
134.283
 20
32.3867
 30
0.0
 11
127.283
 21
20.2613
 31
0.0
  0
LINE
  8
0
 62
     0
 10
88.3447
 20
36.0094
 30
0.0
 11
102.344
 21
36.0094
 31
0.0
  0
LINE
  8
0
 62
     0
 10
102.344
 20
36.0094
 30
0.0
 11
102.344
 21
22.01
 31
0.0
  0
LINE
  8
0
 62
     0
 10
102.344
 20
22.01
 30
0.0
 11
88.3447
 21
22.01
 31
0.0
  0
LINE
  8
0
 62
     0
 10
88.3447
 20
22.01
 30
0.0
 11
88.3447
 21
36.0094
 31
0.0
  0
LINE
  8
0
 62
     0
 10
107.395
 20
36.0094
 30
0.0
 11
121.394
 21
36.0094
 31
0.0
  0
LINE
  8
0
 62
     0
 10
121.394
 20
36.0094
 30
0.0
 11
121.394
 21
22.01
 31
0.0
  0
LINE
  8
0
 62
     0
 10
121.394
 20
22.01
 30
0.0
 11
107.395
 21
22.01
 31
0.0
  0
LINE
  8
0
 62
     0
 10
107.395
 20
22.01
 30
0.0
 11
107.395
 21
36.0094
 31
0.0
  0
LINE
  8
0
 62
     0
 10
145.057
 20
31.9967
 30
0.0
 11
157.18
 21
24.9962
 31
0.0
  0
LINE
  8
0
 62
     0
 10
157.18
 20
24.9962
 30
0.0
 11
164.181
 21
37.1217
 31
0.0
  0
LINE
  8
0
 62
     0
 10
164.181
 20
37.1217
 30
0.0
 11
152.057
 21
44.1205
 31
0.0
  0
LINE
  8
0
 62
     0
 10
152.057
 20
44.1205
 30
0.0
 11
145.057
 21
31.9967
 31
0.0
  0
LINE
  8
0
 62
     0
 10
128.559
 20
41.5216
 30
0.0
 11
140.684
 21
34.5212
 31
0.0
  0
LINE
  8
0
 62
     0
 10
140.684
 20
34.5212
 30
0.0
 11
147.683
 21
46.6467
 31
0.0
  0
LINE
  8
0
 62
     0
 10
147.683
 20
46.6467
 30
0.0
 11
135.559
 21
53.6455
 31
0.0
  0
LINE
  8
0
 62
     0
 10
135.559
 20
53.6455
 30
0.0
 11
128.559
 21
41.5216
 31
0.0
  0
LINE
  8
0
 62
     0
 10
12.1447
 20
52.6796
 30
0.0
 11
26.1441
 21
52.6796
 31
0.0
  0
LINE
  8
0
 62
     0
 10
26.1441
 20
52.6796
 30
0.0
 11
26.1441
 21
38.6789
 31
0.0
  0
LINE
  8
0
 62
     0
 10
26.1441
 20
38.6789
 30
0.0
 11
12.1447
 21
38.6789
 31
0.0
  0
LINE
  8
0
 62
     0
 10
12.1447
 20
38.6789
 30
0.0
 11
12.1447
 21
52.6796
 31
0.0
  0
LINE
  8
0
 62
     0
 10
31.1947
 20
52.6796
 30
0.0
 11
45.194
 21
52.6796
 31
0.0
  0
LINE
  8
0
 62
     0
 10
45.194
 20
52.6796
 30
0.0
 11
45.194
 21
38.6789
 31
0.0
  0
LINE
  8
0
 62
     0
 10
45.194
 20
38.6789
 30
0.0
 11
31.1947
 21
38.6789
 31
0.0
  0
LINE
  8
0
 62
     0
 10
31.1947
 20
38.6789
 30
0.0
 11
31.1947
 21
52.6796
 31
0.0
  0
LINE
  8
0
 62
     0
 10
107.395
 20
55.0594
 30
0.0
 11
121.394
 21
55.0594
 31
0.0
  0
LINE
  8
0
 62
     0
 10
121.394
 20
55.0594
 30
0.0
 11
121.394
 21
41.0602
 31
0.0
  0
LINE
  8
0
 62
     0
 10
121.394
 20
41.0602
 30
0.0
 11
107.395
 21
41.0602
 31
0.0
  0
LINE
  8
0
 62
     0
 10
107.395
 20
41.0602
 30
0.0
 11
107.395
 21
55.0594
 31
0.0
  0
LINE
  8
0
 62
     0
 10
50.2447
 20
57.4407
 30
0.0
 11
64.244
 21
57.4407
 31
0.0
  0
LINE
  8
0
 62
     0
 10
64.244
 20
57.4407
 30
0.0
 11
64.244
 21
43.4414
 31
0.0
  0
LINE
  8
0
 62
     0
 10
64.244
 20
43.4414
 30
0.0
 11
50.2447
 21
43.4414
 31
0.0
  0
LINE
  8
0
 62
     0
 10
50.2447
 20
43.4414
 30
0.0
 11
50.2447
 21
57.4407
 31
0.0
  0
LINE
  8
0
 62
     0
 10
88.3447
 20
57.4407
 30
0.0
 11
102.344
 21
57.4407
 31
0.0
  0
LINE
  8
0
 62
     0
 10
102.344
 20
57.4407
 30
0.0
 11
102.344
 21
43.4414
 31
0.0
  0
LINE
  8
0
 62
     0
 10
102.344
 20
43.4414
 30
0.0
 11
88.3447
 21
43.4414
 31
0.0
  0
LINE
  8
0
 62
     0
 10
88.3447
 20
43.4414
 30
0.0
 11
88.3447
 21
57.4407
 31
0.0
  0
LINE
  8
0
 62
     0
 10
69.2947
 20
59.8219
 30
0.0
 11
83.294
 21
59.8219
 31
0.0
  0
LINE
  8
0
 62
     0
 10
83.294
 20
59.8219
 30
0.0
 11
83.294
 21
45.8227
 31
0.0
  0
LINE
  8
0
 62
     0
 10
83.294
 20
45.8227
 30
0.0
 11
69.2947
 21
45.8227
 31
0.0
  0
LINE
  8
0
 62
     0
 10
69.2947
 20
45.8227
 30
0.0
 11
69.2947
 21
59.8219
 31
0.0
  0
LINE
  8
0
 62
     0
 10
12.1447
 20
71.7296
 30
0.0
 11
26.1441
 21
71.7296
 31
0.0
  0
LINE
  8
0
 62
     0
 10
26.1441
 20
71.7296
 30
0.0
 11
26.1441
 21
57.7289
 31
0.0
  0
LINE
  8
0
 62
     0
 10
26.1441
 20
57.7289
 30
0.0
 11
12.1447
 21
57.7289
 31
0.0
  0
LINE
  8
0
 62
     0
 10
12.1447
 20
57.7289
 30
0.0
 11
12.1447
 21
71.7296
 31
0.0
  0
LINE
  8
0
 62
     0
 10
31.1947
 20
71.7296
 30
0.0
 11
45.194
 21
71.7296
 31
0.0
  0
LINE
  8
0
 62
     0
 10
45.194
 20
71.7296
 30
0.0
 11
45.194
 21
57.7289
 31
0.0
  0
LINE
  8
0
 62
     0
 10
45.194
 20
57.7289
 30
0.0
 11
31.1947
 21
57.7289
 31
0.0
  0
LINE
  8
0
 62
     0
 10
31.1947
 20
57.7289
 30
0.0
 11
31.1947
 21
71.7296
 31
0.0
  0
LINE
  8
0
 62
     0
 10
107.395
 20
74.1094
 30
0.0
 11
121.394
 21
74.1094
 31
0.0
  0
LINE
  8
0
 62
     0
 10
121.394
 20
74.1094
 30
0.0
 11
121.394
 21
60.1102
 31
0.0
  0
LINE
  8
0
 62
     0
 10
121.394
 20
60.1102
 30
0.0
 11
107.395
 21
60.1102
 31
0.0
  0
LINE
  8
0
 62
     0
 10
107.395
 20
60.1102
 30
0.0
 11
107.395
 21
74.1094
 31
0.0
  0
LINE
  8
0
 62
     0
 10
50.2447
 20
76.4907
 30
0.0
 11
64.244
 21
76.4907
 31
0.0
  0
LINE
  8
0
 62
     0
 10
64.244
 20
76.4907
 30
0.0
 11
64.244
 21
62.4914
 31
0.0
  0
LINE
  8
0
 62
     0
 10
64.244
 20
62.4914
 30
0.0
 11
50.2447
 21
62.4914
 31
0.0
  0
LINE
  8
0
 62
     0
 10
50.2447
 20
62.4914
 30
0.0
 11
50.2447
 21
76.4907
 31
0.0
  0
LINE
  8
0
 62
     0
 10
88.3447
 20
76.4907
 30
0.0
 11
102.344
 21
76.4907
 31
0.0
  0
LINE
  8
0
 62
     0
 10
102.344
 20
76.4907
 30
0.0
 11
102.344
 21
62.4914
 31
0.0
  0
LINE
  8
0
 62
     0
 10
102.344
 20
62.4914
 30
0.0
 11
88.3447
 21
62.4914
 31
0.0
  0
LINE
  8
0
 62
     0
 10
88.3447
 20
62.4914
 30
0.0
 11
88.3447
 21
76.4907
 31
0.0
  0
LINE
  8
0
 62
     0
 10
69.2947
 20
78.8719
 30
0.0
 11
83.294
 21
78.8719
 31
0.0
  0
LINE
  8
0
 62
     0
 10
83.294
 20
78.8719
 30
0.0
 11
83.294
 21
64.8727
 31
0.0
  0
LINE
  8
0
 62
     0
 10
83.294
 20
64.8727
 30
0.0
 11
69.2947
 21
64.8727
 31
0.0
  0
LINE
  8
0
 62
     0
 10
69.2947
 20
64.8727
 30
0.0
 11
69.2947
 21
78.8719
 31
0.0
  0
LINE
  8
0
 62
     0
 10
12.1447
 20
90.7796
 30
0.0
 11
26.1441
 21
90.7796
 31
0.0
  0
LINE
  8
0
 62
     0
 10
26.1441
 20
90.7796
 30
0.0
 11
26.1441
 21
76.7789
 31
0.0
  0
LINE
  8
0
 62
     0
 10
26.1441
 20
76.7789
 30
0.0
 11
12.1447
 21
76.7789
 31
0.0
  0
LINE
  8
0
 62
     0
 10
12.1447
 20
76.7789
 30
0.0
 11
12.1447
 21
90.7796
 31
0.0
  0
LINE
  8
0
 62
     0
 10
31.1947
 20
90.7796
 30
0.0
 11
45.194
 21
90.7796
 31
0.0
  0
LINE
  8
0
 62
     0
 10
45.194
 20
90.7796
 30
0.0
 11
45.194
 21
76.7789
 31
0.0
  0
LINE
  8
0
 62
     0
 10
45.194
 20
76.7789
 30
0.0
 11
31.1947
 21
76.7789
 31
0.0
  0
LINE
  8
0
 62
     0
 10
31.1947
 20
76.7789
 30
0.0
 11
31.1947
 21
90.7796
 31
0.0
  0
LINE
  8
0
 62
     0
 10
107.395
 20
93.1594
 30
0.0
 11
121.394
 21
93.1594
 31
0.0
  0
LINE
  8
0
 62
     0
 10
121.394
 20
93.1594
 30
0.0
 11
121.394
 21
79.1602
 31
0.0
  0
LINE
  8
0
 62
     0
 10
121.394
 20
79.1602
 30
0.0
 11
107.395
 21
79.1602
 31
0.0
  0
LINE
  8
0
 62
     0
 10
107.395
 20
79.1602
 30
0.0
 11
107.395
 21
93.1594
 31
0.0
  0
LINE
  8
0
 62
     0
 10
50.2447
 20
95.5407
 30
0.0
 11
64.244
 21
95.5407
 31
0.0
  0
LINE
  8
0
 62
     0
 10
64.244
 20
95.5407
 30
0.0
 11
64.244
 21
81.5414
 31
0.0
  0
LINE
  8
0
 62
     0
 10
64.244
 20
81.5414
 30
0.0
 11
50.2447
 21
81.5414
 31
0.0
  0
LINE
  8
0
 62
     0
 10
50.2447
 20
81.5414
 30
0.0
 11
50.2447
 21
95.5407
 31
0.0
  0
LINE
  8
0
 62
     0
 10
88.3447
 20
95.5407
 30
0.0
 11
102.344
 21
95.5407
 31
0.0
  0
LINE
  8
0
 62
     0
 10
102.344
 20
95.5407
 30
0.0
 11
102.344
 21
81.5414
 31
0.0
  0
LINE
  8
0
 62
     0
 10
102.344
 20
81.5414
 30
0.0
 11
88.3447
 21
81.5414
 31
0.0
  0
LINE
  8
0
 62
     0
 10
88.3447
 20
81.5414
 30
0.0
 11
88.3447
 21
95.5407
 31
0.0
  0
LINE
  8
0
 62
     0
 10
69.2947
 20
97.9219
 30
0.0
 11
83.294
 21
97.9219
 31
0.0
  0
LINE
  8
0
 62
     0
 10
83.294
 20
97.9219
 30
0.0
 11
83.294
 21
83.9227
 31
0.0
  0
LINE
  8
0
 62
     0
 10
83.294
 20
83.9227
 30
0.0
 11
69.2947
 21
83.9227
 31
0.0
  0
LINE
  8
0
 62
     0
 10
69.2947
 20
83.9227
 30
0.0
 11
69.2947
 21
97.9219
 31
0.0
  0
LINE
  8
0
 62
     0
 10
12.1447
 20
109.83
 30
0.0
 11
26.1441
 21
109.83
 31
0.0
  0
LINE
  8
0
 62
     0
 10
26.1441
 20
109.83
 30
0.0
 11
26.1441
 21
95.8289
 31
0.0
  0
LINE
  8
0
 62
     0
 10
26.1441
 20
95.8289
 30
0.0
 11
12.1447
 21
95.8289
 31
0.0
  0
LINE
  8
0
 62
     0
 10
12.1447
 20
95.8289
 30
0.0
 11
12.1447
 21
109.83
 31
0.0
  0
LINE
  8
0
 62
     0
 10
31.1947
 20
109.83
 30
0.0
 11
45.194
 21
109.83
 31
0.0
  0
LINE
  8
0
 62
     0
 10
45.194
 20
109.83
 30
0.0
 11
45.194
 21
95.8289
 31
0.0
  0
LINE
  8
0
 62
     0
 10
45.194
 20
95.8289
 30
0.0
 11
31.1947
 21
95.8289
 31
0.0
  0
LINE
  8
0
 62
     0
 10
31.1947
 20
95.8289
 30
0.0
 11
31.1947
 21
109.83
 31
0.0
  0
LINE
  8
0
 62
     0
 10
107.395
 20
112.209
 30
0.0
 11
121.394
 21
112.209
 31
0.0
  0
LINE
  8
0
 62
     0
 10
121.394
 20
112.209
 30
0.0
 11
121.394
 21
98.2102
 31
0.0
  0
LINE
  8
0
 62
     0
 10
121.394
 20
98.2102
 30
0.0
 11
107.395
 21
98.2102
 31
0.0
  0
LINE
  8
0
 62
     0
 10
107.395
 20
98.2102
 30
0.0
 11
107.395
 21
112.209
 31
0.0
  0
LINE
  8
0
 62
     0
 10
50.2447
 20
114.591
 30
0.0
 11
64.244
 21
114.591
 31
0.0
  0
LINE
  8
0
 62
     0
 10
64.244
 20
114.591
 30
0.0
 11
64.244
 21
100.591
 31
0.0
  0
LINE
  8
0
 62
     0
 10
64.244
 20
100.591
 30
0.0
 11
50.2447
 21
100.591
 31
0.0
  0
LINE
  8
0
 62
     0
 10
50.2447
 20
100.591
 30
0.0
 11
50.2447
 21
114.591
 31
0.0
  0
LINE
  8
0
 62
     0
 10
88.3447
 20
114.591
 30
0.0
 11
102.344
 21
114.591
 31
0.0
  0
LINE
  8
0
 62
     0
 10
102.344
 20
114.591
 30
0.0
 11
102.344
 21
100.591
 31
0.0
  0
LINE
  8
0
 62
     0
 10
102.344
 20
100.591
 30
0.0
 11
88.3447
 21
100.591
 31
0.0
  0
LINE
  8
0
 62
     0
 10
88.3447
 20
100.591
 30
0.0
 11
88.3447
 21
114.591
 31
0.0
  0
LINE
  8
0
 62
     0
 10
69.2947
 20
116.972
 30
0.0
 11
83.294
 21
116.972
 31
0.0
  0
LINE
  8
0
 62
     0
 10
83.294
 20
116.972
 30
0.0
 11
83.294
 21
102.973
 31
0.0
  0
LINE
  8
0
 62
     0
 10
83.294
 20
102.973
 30
0.0
 11
69.2947
 21
102.973
 31
0.0
  0
LINE
  8
0
 62
     0
 10
69.2947
 20
102.973
 30
0.0
 11
69.2947
 21
116.972
 31
0.0
  0
ENDSEC
  0
EOF
